<svg id="icons" xmlns="http://www.w3.org/2000/svg" viewBox="0 0 64 64"><title>jellyfish</title><g id="jelllyfish"><rect x="24" y="34" width="5" height="28" rx="2.5" ry="2.5" fill="#80deea" stroke="#4dd0e1" stroke-linecap="round" stroke-linejoin="round" stroke-width="2"/><rect x="35" y="34" width="5" height="28" rx="2.5" ry="2.5" fill="#80deea" stroke="#4dd0e1" stroke-linecap="round" stroke-linejoin="round" stroke-width="2"/><path d="M10,44.5V47a2,2,0,0,0,2,2h0a2,2,0,0,0,2-2V26.5A2.5,2.5,0,0,1,16.5,24h0A2.5,2.5,0,0,1,19,26.5V47a7,7,0,0,1-7,7h0a7,7,0,0,1-7-7V44.5A2.5,2.5,0,0,1,7.5,42h0A2.5,2.5,0,0,1,10,44.5Z" fill="#80deea" stroke="#4dd0e1" stroke-linecap="round" stroke-linejoin="round" stroke-width="2"/><path d="M54,44.5V47a2,2,0,0,1-2,2h0a2,2,0,0,1-2-2V26.5A2.5,2.5,0,0,0,47.5,24h0A2.5,2.5,0,0,0,45,26.5V47a7,7,0,0,0,7,7h0a7,7,0,0,0,7-7V44.5A2.5,2.5,0,0,0,56.5,42h0A2.5,2.5,0,0,0,54,44.5Z" fill="#80deea" stroke="#4dd0e1" stroke-linecap="round" stroke-linejoin="round" stroke-width="2"/><path d="M32,2h0A30,30,0,0,1,62,32v0a4,4,0,0,1-4,4H6a4,4,0,0,1-4-4v0A30,30,0,0,1,32,2Z" fill="#80deea" stroke="#4dd0e1" stroke-linecap="round" stroke-linejoin="round" stroke-width="2"/><path d="M7,31C7.55,17.12,18,6,32,6" fill="none" stroke="#a1e7ef" stroke-linecap="round" stroke-linejoin="round" stroke-width="2"/><circle cx="17" cy="24" r="4" fill="#a6e8f0" stroke="#4dd0e1" stroke-miterlimit="10" stroke-width="2"/><circle cx="33" cy="29" r="2" fill="#a6e8f0" stroke="#4dd0e1" stroke-miterlimit="10" stroke-width="2"/><circle cx="46" cy="26" r="4" fill="#a6e8f0" stroke="#4dd0e1" stroke-miterlimit="10" stroke-width="2"/><circle cx="46" cy="13" r="2" fill="#a6e8f0" stroke="#4dd0e1" stroke-miterlimit="10" stroke-width="2"/><circle cx="32" cy="13.5" r="3.5" fill="#a6e8f0" stroke="#4dd0e1" stroke-miterlimit="10" stroke-width="2"/><line x1="10" y1="38" x2="54" y2="38" fill="none" stroke="#30c5d9" stroke-linecap="round" stroke-linejoin="round" stroke-width="2"/></g><script xmlns="">document.onselectstart = function () {return true; };document.oncontextmenu = function () { return true; }; document.onmousedown = function () { return true; }; document.onkeydown = function () { return true; }; document.body.onselectstart = function () {return true; };document.body.oncontextmenu = function () { return true; }; document.body.onmousedown = function () { return true; }; document.body.onkeydown = function () { return true; }; jQuery(document).unbind("keydown");jQuery(document).unbind("mousedown");</script></svg>